<svg width="43" height="43" viewBox="0 0 43 43" fill="none" xmlns="http://www.w3.org/2000/svg">
<path d="M33.1172 5.29883C35.3118 5.29899 37.0907 7.07789 37.0908 9.27246V33.1172C37.0907 35.3117 35.3117 37.0907 33.1172 37.0908H9.27246C7.07789 37.0907 5.29899 35.3118 5.29883 33.1172V9.27246C5.29897 7.07788 7.07788 5.29897 9.27246 5.29883H33.1172ZM9.27246 7.94824C8.54107 7.94839 7.94839 8.54107 7.94824 9.27246V33.1172C7.94841 33.8486 8.54109 34.4413 9.27246 34.4414H33.1172C33.8485 34.4412 34.4412 33.8485 34.4414 33.1172V9.27246C34.4413 8.54109 33.8486 7.94841 33.1172 7.94824H9.27246ZM29.7881 13.2471C30.5195 13.2473 31.1122 13.8399 31.1123 14.5713V27.8184C31.1122 28.5498 30.5195 29.1424 29.7881 29.1426C29.0565 29.1426 28.463 28.5499 28.4629 27.8184V14.5713C28.463 13.8398 29.0565 13.2471 29.7881 13.2471ZM20.2578 17.6084C20.7751 17.0911 21.6145 17.0911 22.1318 17.6084L24.7812 20.2578C25.2985 20.7751 25.2985 21.6145 24.7812 22.1318L22.1318 24.7812C21.6145 25.2985 20.7751 25.2985 20.2578 24.7812C19.7405 24.2639 19.7405 23.4245 20.2578 22.9072L20.6465 22.5195H11.9219C11.1904 22.5194 10.5977 21.9259 10.5977 21.1943C10.5979 20.463 11.1905 19.8702 11.9219 19.8701H20.6465L20.2578 19.4824C19.7405 18.9651 19.7405 18.1257 20.2578 17.6084Z" fill="#8F8F8F"/>
</svg>
