<svg width="43" height="43" viewBox="0 0 43 43" fill="none" xmlns="http://www.w3.org/2000/svg">
<path d="M22.5195 23.8441C21.7879 23.8441 21.1948 24.4371 21.1948 25.1687C21.1948 25.9003 21.7879 26.4934 22.5195 26.4934H27.8182C28.5498 26.4934 29.1428 25.9003 29.1428 25.1687C29.1428 24.4371 28.5498 23.8441 27.8182 23.8441H22.5195Z" fill="white"/>
<path fill-rule="evenodd" clip-rule="evenodd" d="M6.62335 21.1947C6.62335 13.1471 13.1472 6.62329 21.1948 6.62329C29.2424 6.62329 35.7662 13.1471 35.7662 21.1947C35.7662 29.2423 29.2424 35.7661 21.1948 35.7661C13.1472 35.7661 6.62335 29.2423 6.62335 21.1947ZM21.1948 33.1168C17.6426 33.1168 14.4532 31.5632 12.269 29.0985L29.0986 12.269C31.5633 14.4531 33.1169 17.6425 33.1169 21.1947C33.1169 27.7791 27.7792 33.1168 21.1948 33.1168ZM17.2205 19.8701C16.4889 19.8701 15.8958 19.277 15.8958 18.5454V17.2207H14.5711C13.8395 17.2207 13.2464 16.6276 13.2464 15.896C13.2464 15.1644 13.8395 14.5714 14.5711 14.5714H15.8958V13.2467C15.8958 12.5151 16.4889 11.922 17.2205 11.922C17.9521 11.922 18.5451 12.5151 18.5451 13.2467V14.5714L19.8698 14.5714C20.6014 14.5714 21.1945 15.1644 21.1945 15.896C21.1945 16.6276 20.6014 17.2207 19.8698 17.2207H18.5451V18.5454C18.5451 19.277 17.9521 19.8701 17.2205 19.8701Z" fill="white"/>
</svg>
