<svg width="43" height="43" viewBox="0 0 43 43" fill="none" xmlns="http://www.w3.org/2000/svg">
<path fill-rule="evenodd" clip-rule="evenodd" d="M21.1948 10.1214C21.8948 10.1214 22.4626 10.6892 22.4626 11.3892V16.5093C24.4506 17.0462 25.9341 18.8144 26.042 20.9452L26.0485 21.1949C26.0483 23.4358 24.5273 25.32 22.4626 25.8778V31.0006C22.4626 31.7005 21.8948 32.2683 21.1948 32.2683C20.495 32.2681 19.9284 31.7004 19.9284 31.0006V25.8791C17.8626 25.322 16.3413 23.4366 16.3411 21.1949C16.3413 18.953 17.8625 17.0664 19.9284 16.5093V11.3892C19.9284 10.6893 20.495 10.1216 21.1948 10.1214ZM21.1948 18.9905C19.9782 18.9908 18.992 19.9783 18.9918 21.1949C18.992 22.4114 19.9782 23.3976 21.1948 23.3979C22.4113 23.3976 23.3989 22.4114 23.3992 21.1949C23.3989 19.9783 22.4113 18.9909 21.1948 18.9905Z" fill="white"/>
</svg>
